<svg viewBox="0 0 50 50" width="50" height="50">
  <path fill-rule="evenodd" clip-rule="evenodd" d="M 19.546 50 L 19.546 49.886 L 19.546 47.489 L 19.546 40.531 C 12.424 38.289 7.273 31.776 7.273 24.091 C 7.273 14.551 15.21 6.818 25 6.818 C 34.79 6.818 42.727 14.551 42.727 24.091 C 42.727 31.776 37.576 38.289 30.454 40.531 L 30.454 47.489 L 30.454 49.886 L 30.454 50 L 50 50 L 50 42.955 L 40.348 42.955 C 46.155 38.555 49.886 31.715 49.886 24.034 C 49.886 10.76 38.744 0 25 0 C 11.256 0 0.114 10.76 0.114 24.034 C 0.114 31.715 3.845 38.555 9.652 42.955 L 0 42.955 L 0 50 L 19.546 50 Z"></path>
</svg><svg width="143" height="111" viewBox="0 0 143 111" fill="none" xmlns="http://www.w3.org/2000/svg">
<path d="M50.0114 7.12625C51.8078 7.12625 53.5722 7.59586 55.127 8.49405L87.7719 27.3424C89.328 28.2413 90.62 29.5341 91.518 31.0908C92.416 32.6475 92.8883 34.4132 92.8874 36.2103V74.6637C92.8874 78.3203 90.9406 81.6988 87.7719 83.5271L55.1224 102.38C53.5664 103.278 51.8013 103.751 50.0046 103.751C48.2078 103.751 46.4427 103.278 44.8867 102.38L12.2327 83.5271C10.6767 82.6288 9.38448 81.3368 8.48575 79.7811C7.58702 78.2253 7.11344 76.4604 7.11257 74.6637V36.2103C7.11257 32.5537 9.06397 29.1752 12.2327 27.3424L44.8776 8.49405C46.4369 7.59586 48.2059 7.12169 49.9977 7.12169H50.0068L50.0114 7.12625ZM50.0023 0.00911802C46.9578 0.0109025 43.9673 0.812773 41.3304 2.33438L8.67642 21.1781C6.04162 22.7047 3.8536 24.896 2.33103 27.5331C0.808467 30.1701 0.00467912 33.1606 0 36.2057V74.6592C0.00467912 77.7043 0.808467 80.6948 2.33103 83.3319C3.8536 85.9689 6.04162 88.1603 8.67642 89.6868L41.3213 108.535C46.6922 111.635 53.3078 111.635 58.6741 108.535L91.3236 89.6868C93.9584 88.1603 96.1464 85.9689 97.669 83.3319C99.1915 80.6948 99.9953 77.7043 100 74.6592V36.2057C99.9953 33.1606 99.1915 30.1701 97.669 27.5331C96.1464 24.896 93.9584 22.7047 91.3236 21.1781L58.6787 2.32526C56.0391 0.80211 53.0453 0.000185684 49.9977 0L50.0023 0.00911802Z" fill="white"/>
<path d="M46.0037 61.4736C45.6286 61.4742 45.26 61.3759 44.935 61.1885C44.6101 61.0012 44.3402 60.7316 44.1526 60.4067L40.227 53.5996C40.0398 53.2753 39.9412 52.9073 39.9412 52.5328C39.9412 52.1582 40.0398 51.7902 40.227 51.4659L44.1526 44.6588C44.3402 44.3339 44.6101 44.0643 44.935 43.877C45.26 43.6897 45.6286 43.5913 46.0037 43.5919H54.0191C54.3932 43.593 54.7605 43.6921 55.0845 43.8793C55.4084 44.0665 55.6777 44.3352 55.8656 44.6588L59.7957 51.4659C59.983 51.7902 60.0816 52.1582 60.0816 52.5328C60.0816 52.9073 59.983 53.2753 59.7957 53.5996L55.8656 60.4067C55.6784 60.7309 55.4093 61.0001 55.0852 61.1874C54.761 61.3747 54.3934 61.4734 54.0191 61.4736H46.0037ZM35.2938 50.7546C35.6688 50.7542 36.037 50.6555 36.3618 50.4683C36.6867 50.2811 36.9567 50.0119 37.1449 49.6877L41.0705 42.8806C41.2578 42.5563 41.3564 42.1883 41.3564 41.8137C41.3564 41.4392 41.2578 41.0712 41.0705 40.7469L36.1738 32.2619L26.6129 37.4778C26.2701 37.6656 25.9855 37.9439 25.7901 38.2824C25.5948 38.6209 25.4961 39.0066 25.5049 39.3973C25.5824 43.218 26.0293 47.0205 26.8317 50.7546H35.2938ZM64.7244 50.7546C64.3501 50.7544 63.9824 50.6557 63.6583 50.4684C63.3342 50.2811 63.065 50.0119 62.8778 49.6877L58.9477 42.8806C58.7604 42.5563 58.6618 42.1883 58.6618 41.8137C58.6618 41.4392 58.7604 41.0712 58.9477 40.7469L63.8444 32.2619L73.4008 37.4778C73.7437 37.6646 74.0288 37.942 74.2249 38.2796C74.4211 38.6173 74.5208 39.0023 74.5133 39.3927C74.4355 43.2135 73.9927 47.0181 73.1911 50.7546H64.7244ZM51.0327 25.2633C50.7194 25.0925 50.3682 25.0031 50.0114 25.0031C49.6546 25.0031 49.3034 25.0925 48.9901 25.2633L39.2969 30.5522L44.1572 38.9687C44.3444 39.2929 44.6135 39.5621 44.9376 39.7494C45.2617 39.9367 45.6294 40.0354 46.0037 40.0356H54.0191C54.3935 40.0358 54.7613 39.9373 55.0855 39.75C55.4097 39.5627 55.6788 39.2932 55.8656 38.9687L60.7258 30.5567L51.0327 25.2679V25.2633ZM27.7162 54.3109C29.5449 60.8162 32.4665 66.9632 36.3562 72.489L41.0751 64.3186C41.2624 63.9943 41.361 63.6263 41.361 63.2518C41.361 62.8772 41.2624 62.5093 41.0751 62.1849L37.1449 55.3778C36.9578 55.0536 36.6886 54.7844 36.3645 54.5971C36.0404 54.4098 35.6727 54.3111 35.2984 54.3109H27.7162ZM72.2974 54.3109C70.4702 60.8159 67.5501 66.9629 63.6621 72.489L58.9431 64.3186C58.7559 63.9943 58.6573 63.6263 58.6573 63.2518C58.6573 62.8772 58.7559 62.5093 58.9431 62.1849L62.8778 55.3778C63.065 55.0536 63.3342 54.7844 63.6583 54.5971C63.9824 54.4098 64.3501 54.3111 64.7244 54.3109H72.302H72.2974ZM46.0037 65.0299C45.6286 65.0293 45.26 65.1277 44.935 65.315C44.6101 65.5023 44.3402 65.7719 44.1526 66.0968L38.6814 75.5802C41.6279 79.2413 44.9928 82.545 48.7074 85.4238C49.082 85.7118 49.5412 85.868 50.0137 85.868C50.4861 85.868 50.9454 85.7118 51.3199 85.4238C55.0332 82.5433 58.3965 79.2381 61.3413 75.5757L55.8701 66.0968C55.683 65.7726 55.4138 65.5034 55.0897 65.3161C54.7656 65.1289 54.3979 65.0301 54.0236 65.0299H45.9992H46.0037Z" fill="white"/>
<rect x="100.5" y="0.5" width="42" height="14" rx="7" stroke="white"/>
<path d="M107.003 12V11.016H109.523C110.003 11.016 110.379 10.876 110.651 10.596C110.923 10.308 111.059 9.964 111.059 9.564C111.059 9.292 110.999 9.048 110.879 8.832C110.759 8.608 110.583 8.432 110.351 8.304C110.127 8.176 109.863 8.112 109.559 8.112H107.003V7.128H109.391C109.791 7.128 110.107 7.024 110.339 6.816C110.579 6.6 110.699 6.292 110.699 5.892C110.699 5.492 110.575 5.188 110.327 4.98C110.079 4.764 109.751 4.656 109.343 4.656H107.003V3.672H109.367C109.911 3.672 110.363 3.772 110.723 3.972C111.091 4.164 111.367 4.42 111.551 4.74C111.743 5.06 111.839 5.412 111.839 5.796C111.839 6.244 111.715 6.636 111.467 6.972C111.227 7.308 110.871 7.572 110.399 7.764L110.495 7.404C111.031 7.596 111.447 7.888 111.743 8.28C112.047 8.664 112.199 9.12 112.199 9.648C112.199 10.088 112.091 10.484 111.875 10.836C111.659 11.188 111.347 11.472 110.939 11.688C110.539 11.896 110.047 12 109.463 12H107.003ZM106.247 12V3.672H107.375V12H106.247ZM114.923 12V3.672H116.051V12H114.923ZM115.691 12V10.968H120.467V12H115.691ZM115.691 8.232V7.248H120.071V8.232H115.691ZM115.691 4.704V3.672H120.407V4.704H115.691ZM125.093 12V3.912H126.221V12H125.093ZM122.261 4.704V3.672H129.041V4.704H122.261ZM129.754 12L133.162 3.672H133.978L137.374 12H136.15L133.354 4.956H133.774L130.954 12H129.754ZM131.374 10.116V9.132H135.754V10.116H131.374Z" fill="white"/>
</svg>
